<?xml version="1.0" encoding="utf-8"?>
<!-- Generator: Adobe Illustrator 19.2.1, SVG Export Plug-In . SVG Version: 6.00 Build 0)  -->
<!DOCTYPE svg PUBLIC "-//W3C//DTD SVG 1.1//EN" "http://www.w3.org/Graphics/SVG/1.1/DTD/svg11.dtd">
<svg version="1.1" xmlns="http://www.w3.org/2000/svg" xmlns:xlink="http://www.w3.org/1999/xlink" x="0px" y="0px"
	 viewBox="0 0 280.5 40" style="enable-background:new 0 0 280.5 40;" xml:space="preserve">
<style type="text/css">
	.st0{fill:#BFBEBE;}
	.st1{fill:#7ACFF0;}
</style>
<g id="Layer_2">
</g>
<g id="Layer_1">
	<g>
		<g>
			<g>
				<path class="st0" d="M101.3,35.7L91.8,20l9.5-15.7h4.8L96.6,20l9.2,15.6H101.3z"/>
				<path class="st0" d="M264.8,4.4l9.5,15.6l-9.6,15.7h-4.8l9.5-15.7l-9.2-15.6H264.8z"/>
			</g>
			<g>
				<path class="st1" d="M20.3,4.4v31.3h-4V22h-6v13.6h-4V4.4h4V18h6V4.4H20.3z"/>
				<path class="st1" d="M36.2,35.7h-4.1l7.2-31.3h3.2l7.3,31.3h-4.2l-2-8.7h-5.4L36.2,35.7z M40.9,15.2l-1.8,7.7h3.6L40.9,15.2z"/>
				<path class="st1" d="M66.6,35.7c-0.8,0-1.4-0.1-2-0.2c-0.6-0.2-1.1-0.4-1.6-0.6c-0.5-0.2-0.9-0.5-1.2-0.8
					c-0.3-0.3-0.6-0.6-0.8-0.9c-1.2-1.5-1.8-3.7-1.8-6.5V13.3c0-2.8,0.6-4.9,1.8-6.5c0.5-0.6,1.1-1.1,2-1.7c0.9-0.5,2.1-0.8,3.6-0.8
					c1.5,0,2.7,0.3,3.6,0.8c0.9,0.5,1.5,1.1,2,1.7c1.2,1.6,1.8,3.7,1.8,6.5v2h-4v-2c0-1.2-0.1-2.2-0.4-2.8c-0.2-0.7-0.5-1.2-0.9-1.5
					c-0.4-0.3-0.7-0.5-1.1-0.5c-0.4-0.1-0.7-0.1-1-0.1c-0.3,0-0.7,0-1,0.1c-0.4,0.1-0.8,0.2-1.1,0.5c-0.4,0.3-0.7,0.8-0.9,1.5
					c-0.2,0.7-0.4,1.6-0.4,2.8v13.4c0,1.8,0.3,3.2,1,4c0.1,0.2,0.4,0.4,0.8,0.6c0.4,0.2,0.9,0.3,1.7,0.3c0.8,0,1.3-0.1,1.7-0.3
					c0.4-0.2,0.6-0.4,0.8-0.6c0.6-0.8,0.9-2.2,0.9-4v-2h4v2c0,2.7-0.6,4.9-1.8,6.5c-0.5,0.6-1.1,1.1-2,1.7
					C69.3,35.4,68.1,35.7,66.6,35.7z"/>
				<path class="st1" d="M119.1,35.6c-2.5,0-4.4-0.8-5.6-2.4c-1.2-1.5-1.8-3.7-1.8-6.5v-2h4v2c0,1.8,0.3,3.2,1,3.9
					c0.1,0.2,0.4,0.4,0.8,0.6c0.4,0.2,0.9,0.3,1.7,0.3c0.8,0,1.4-0.2,1.8-0.5c0.5-0.3,0.8-0.7,1-1.2c0.2-0.5,0.4-1,0.5-1.5
					c0.1-0.6,0.1-1,0.1-1.5c0-0.7-0.1-1.4-0.3-1.9c-0.2-0.5-0.5-0.9-0.9-1.3c-0.4-0.4-0.8-0.7-1.2-0.9c-0.5-0.2-0.9-0.5-1.4-0.7
					l-0.8-0.3c-0.5-0.2-1-0.5-1.7-0.8c-0.7-0.4-1.4-0.9-2.1-1.5c-1.7-1.6-2.5-3.7-2.5-6.3c0-1.3,0.2-2.5,0.5-3.7
					c0.4-1.1,0.9-2,1.5-2.8c0.7-0.8,1.5-1.4,2.4-1.8c0.9-0.4,1.9-0.7,3-0.7c1.5,0,2.7,0.3,3.6,0.8s1.6,1.1,2,1.7
					c1.2,1.6,1.8,3.7,1.8,6.5v2h-4v-2c0-1.2-0.1-2.2-0.4-2.8s-0.5-1.2-0.9-1.5c-0.4-0.3-0.8-0.5-1.1-0.5c-0.4-0.1-0.7-0.1-1-0.1
					c-0.8,0-1.5,0.2-1.9,0.6c-0.5,0.4-0.8,0.9-1,1.4c-0.2,0.6-0.4,1.1-0.4,1.7c-0.1,0.6-0.1,1-0.1,1.3c0,0.7,0.1,1.4,0.3,1.9
					c0.2,0.5,0.5,1,0.9,1.4c0.4,0.4,0.8,0.7,1.3,1c0.5,0.3,1,0.5,1.5,0.7l0.7,0.3c0.4,0.2,0.9,0.4,1.6,0.7c0.7,0.3,1.4,0.8,2.1,1.5
					c1.8,1.6,2.6,3.7,2.6,6.2c0,2.4-0.6,4.4-1.8,6C123.4,34.7,121.5,35.6,119.1,35.6z"/>
				<path class="st1" d="M141,35.6h-4V4.3h3.5l6.3,22l6.3-22h3.5v31.3h-4v-15l-4.3,15h-3l-4.3-15V35.6z"/>
				<path class="st1" d="M169.6,35.7V4.4h4v31.3H169.6z"/>
				<path class="st1" d="M203.1,8.4h-6.8v27.3h-4V8.4h-6.8v-4h17.7V8.4z"/>
				<path class="st1" d="M227.6,4.4v31.3h-4V22h-6v13.6h-4V4.4h4V18h6V4.4H227.6z"/>
				<path class="st1" d="M246.9,35.6c-2.5,0-4.4-0.8-5.6-2.4c-1.2-1.5-1.8-3.7-1.8-6.5v-2h4v2c0,1.8,0.3,3.2,1,3.9
					c0.1,0.2,0.4,0.4,0.8,0.6c0.4,0.2,0.9,0.3,1.7,0.3c0.8,0,1.4-0.2,1.8-0.5c0.5-0.3,0.8-0.7,1-1.2c0.2-0.5,0.4-1,0.5-1.5
					c0.1-0.6,0.1-1,0.1-1.5c0-0.7-0.1-1.4-0.3-1.9s-0.5-0.9-0.9-1.3c-0.4-0.4-0.8-0.7-1.2-0.9c-0.5-0.2-0.9-0.5-1.4-0.7l-0.8-0.3
					c-0.5-0.2-1-0.5-1.7-0.8c-0.7-0.4-1.4-0.9-2.1-1.5c-1.7-1.6-2.5-3.7-2.5-6.3c0-1.3,0.2-2.5,0.5-3.7s0.9-2,1.5-2.8
					c0.7-0.8,1.5-1.4,2.4-1.8c0.9-0.4,1.9-0.7,3-0.7c1.5,0,2.7,0.3,3.6,0.8c0.9,0.5,1.6,1.1,2,1.7c1.2,1.6,1.8,3.7,1.8,6.5v2h-4v-2
					c0-1.2-0.1-2.2-0.4-2.8S249.4,9.3,249,9c-0.4-0.3-0.8-0.5-1.1-0.5c-0.4-0.1-0.7-0.1-1-0.1c-0.8,0-1.5,0.2-1.9,0.6
					c-0.5,0.4-0.8,0.9-1,1.4c-0.2,0.6-0.4,1.1-0.4,1.7c-0.1,0.6-0.1,1-0.1,1.3c0,0.7,0.1,1.4,0.3,1.9c0.2,0.5,0.5,1,0.9,1.4
					c0.4,0.4,0.8,0.7,1.3,1c0.5,0.3,1,0.5,1.5,0.7l0.7,0.3c0.4,0.2,0.9,0.4,1.6,0.7c0.7,0.3,1.4,0.8,2.1,1.5
					c1.8,1.6,2.6,3.7,2.6,6.2c0,2.4-0.6,4.4-1.8,6C251.2,34.7,249.3,35.6,246.9,35.6z"/>
				<rect x="84.1" y="4.3" class="st1" width="4" height="31.3"/>
			</g>
		</g>
	</g>
</g>
</svg>
