<?xml version="1.0" encoding="utf-8"?>
<!-- Generator: Adobe Illustrator 19.2.1, SVG Export Plug-In . SVG Version: 6.00 Build 0)  -->
<!DOCTYPE svg PUBLIC "-//W3C//DTD SVG 1.1//EN" "http://www.w3.org/Graphics/SVG/1.1/DTD/svg11.dtd">
<svg version="1.1" xmlns="http://www.w3.org/2000/svg" xmlns:xlink="http://www.w3.org/1999/xlink" x="0px" y="0px"
	 viewBox="0 0 85 85" style="enable-background:new 0 0 85 85;" xml:space="preserve">
<style type="text/css">
	.st0{fill:#7ACFF0;}
</style>
<g id="Layer_2">
</g>
<g id="Layer_1">
	<g>
		<path class="st0" d="M38.9,53h-5.1c-0.2,0-0.3,0.1-0.3,0.3v1.1c0,0.2,0.1,0.3,0.3,0.3h5.1c0.2,0,0.3-0.1,0.3-0.3v-1.1
			C39.2,53.1,39.1,53,38.9,53z"/>
		<path class="st0" d="M34.4,31.9c-0.4,0-0.6,0.3-0.6,0.6V37c0,0.4,0.3,0.6,0.6,0.6c0.4,0,0.6-0.3,0.6-0.6v-4.5
			C35.1,32.2,34.8,31.9,34.4,31.9z"/>
		<path class="st0" d="M31.9,32.9c-0.3,0-0.6,0.3-0.6,0.6v1c0,0.3,0.3,0.6,0.6,0.6c0.3,0,0.6-0.3,0.6-0.6v-1
			C32.5,33.1,32.2,32.9,31.9,32.9z"/>
		<path class="st0" d="M50.4,44.8c0-0.4-0.3-0.7-0.7-0.7h-2.4c-0.4,0-0.7,0.3-0.7,0.7c0,0.4,0.3,0.7,0.7,0.7h2.4
			C50.1,45.5,50.4,45.2,50.4,44.8z"/>
		<path class="st0" d="M49.7,46.5H49c-0.4,0-0.7,0.3-0.7,0.7c0,0.4,0.3,0.7,0.7,0.7h0.7c0.4,0,0.7-0.3,0.7-0.7
			C50.4,46.8,50.1,46.5,49.7,46.5z"/>
		<path class="st0" d="M42.5,0.3C19.2,0.3,0.3,19.2,0.3,42.5c0,23.3,18.9,42.2,42.2,42.2c23.3,0,42.2-18.9,42.2-42.2
			C84.7,19.2,65.8,0.3,42.5,0.3z M65,34.8c0,0.2-0.1,0.4-0.2,0.6l-0.4,0.5h-0.1c-4.5,0-11.7,3.1-12,11.5c0,0.1,0,0.2,0.1,0.2
			l4.9,3.9c0.2,0.1,0.3,0.4,0.3,0.6v3.2c0,0.4-0.3,0.8-0.8,0.8h-6.7c-0.7,0-1.3-0.6-1.3-1.3v-1.7c0-0.1,0-0.1-0.1-0.2
			c-0.6-0.6-2.2-2.1-3.9-2.1c-1.8,0-3.3,1.5-3.9,2.1c0,0.1-0.1,0.1-0.1,0.2v1.7c0,0.7-0.6,1.3-1.3,1.3h-6.7c-0.4,0-0.8-0.4-0.8-0.8
			v-3.2c0-0.2,0.1-0.5,0.3-0.6l4.9-3.9c0.1-0.1,0.1-0.1,0.1-0.2c-0.1-3.2-1.4-4.6-4-4.6l-0.8,0c-9.9-0.4-15.6-7.4-15.8-7.7l-0.2-0.2
			v-1.3c0-0.4,0.3-0.8,0.8-0.8h12.3c0.2,0,0.3-0.1,0.3-0.3c0-0.4,0.3-0.8,0.8-0.8h1.6c0.2,0,0.3-0.1,0.3-0.3c0-0.4,0.4-0.8,0.8-0.8
			h30.9c0.4,0,0.8,0.4,0.8,0.8V34.8z"/>
		<path class="st0" d="M50.4,53.2v1.1c0,0.2,0.1,0.3,0.3,0.3h5.1c0.2,0,0.3-0.1,0.3-0.3v-1.1c0-0.2-0.1-0.3-0.3-0.3h-5.1
			C50.5,53,50.4,53.1,50.4,53.2z"/>
	</g>
</g>
</svg>
