<?xml version="1.0" standalone="no"?>
<!DOCTYPE svg PUBLIC "-//W3C//DTD SVG 20010904//EN"
 "http://www.w3.org/TR/2001/REC-SVG-20010904/DTD/svg10.dtd">
<svg version="1.0" xmlns="http://www.w3.org/2000/svg"
 width="700.000000pt" height="700.000000pt" viewBox="0 0 700.000000 700.000000"
 preserveAspectRatio="xMidYMid meet">
<metadata>
Created by potrace 1.11, written by Peter Selinger 2001-2013
</metadata>
<g transform="translate(0.000000,700.000000) scale(0.100000,-0.100000)"
fill="#000000" stroke="none">
<path d="M3417 6975 c-1 -1 -60 -5 -132 -9 -71 -3 -139 -8 -150 -10 -11 -2
-47 -7 -80 -10 -561 -65 -1154 -305 -1632 -662 -65 -48 -120 -90 -123 -93 -3
-3 -36 -33 -75 -66 -318 -270 -621 -656 -817 -1040 -118 -231 -251 -587 -284
-758 -2 -12 -10 -49 -19 -82 -8 -33 -16 -77 -19 -97 -2 -20 -7 -45 -10 -55 -7
-24 -34 -238 -42 -338 -8 -104 -8 -420 0 -510 13 -137 18 -181 32 -270 8 -49
17 -106 19 -125 3 -19 8 -43 11 -52 3 -10 7 -30 10 -45 12 -70 73 -284 112
-393 63 -179 57 -165 148 -358 265 -564 725 -1087 1254 -1424 245 -156 517
-287 760 -367 126 -42 234 -74 290 -86 310 -69 554 -98 820 -99 95 0 349 12
395 19 101 15 235 36 265 41 67 10 316 74 405 103 716 233 1316 667 1758 1274
117 160 186 273 282 462 108 212 211 477 261 670 14 53 58 252 65 295 11 58
12 69 24 165 4 33 9 62 10 66 7 11 18 267 18 400 -1 127 -9 283 -18 354 -3 17
-9 68 -15 115 -60 463 -251 976 -518 1390 -38 60 -153 222 -162 230 -3 3 -21
25 -40 50 -129 170 -384 425 -564 565 -22 17 -51 39 -65 51 -128 102 -389 260
-585 354 -254 123 -598 239 -816 276 -14 3 -47 9 -75 14 -91 17 -274 40 -368
46 -101 6 -326 12 -330 9z m1921 -2515 c24 -23 24 -22 23 -203 -1 -123 -12
-168 -47 -198 -11 -9 -26 -16 -34 -16 -22 0 -142 -12 -165 -17 -317 -66 -575
-254 -704 -511 -32 -66 -69 -166 -73 -202 -1 -5 -5 -24 -9 -43 -5 -19 -11 -69
-15 -110 l-6 -75 89 -70 c48 -38 90 -72 93 -75 3 -3 55 -45 116 -92 60 -47
116 -93 123 -102 10 -12 13 -53 13 -149 0 -180 1 -174 -22 -197 -19 -19 -33
-20 -317 -20 -384 0 -379 -2 -385 177 l-3 87 -65 53 c-98 80 -176 115 -261
115 -60 1 -79 -4 -142 -35 -39 -20 -98 -59 -129 -88 l-58 -51 0 -84 c0 -56 -5
-95 -15 -114 -30 -58 -45 -60 -370 -60 -282 0 -296 1 -315 20 -23 23 -22 15
-24 185 -1 72 2 139 7 150 5 11 38 43 74 70 36 28 73 57 83 65 9 8 74 60 144
115 143 113 139 106 112 236 -19 86 -45 137 -94 181 -53 48 -116 67 -245 73
-150 7 -207 13 -322 36 -343 69 -677 250 -937 511 l-98 98 0 68 c0 117 -54
107 559 110 l531 3 14 33 c20 47 42 56 134 56 77 0 80 1 86 25 4 14 15 34 26
45 20 20 39 20 1313 20 1288 0 1293 0 1315 -20z"/>
<path d="M2800 4360 c-13 -8 -15 -44 -16 -215 0 -207 3 -231 36 -235 37 -5 50
1 57 28 12 50 7 400 -7 417 -14 17 -47 19 -70 5z"/>
<path d="M2602 4282 c-18 -12 -28 -61 -22 -112 4 -38 9 -46 34 -55 42 -14 64
16 61 89 -2 74 -31 104 -73 78z"/>
<path d="M3870 3357 c-17 -8 -26 -22 -28 -43 -5 -51 15 -59 155 -60 115 -1
125 0 138 20 20 28 19 52 -5 76 -18 18 -33 20 -127 20 -67 0 -118 -5 -133 -13z"/>
<path d="M3996 3154 c-28 -28 -12 -90 25 -95 62 -9 105 0 121 25 13 20 8 53
-10 69 -25 22 -115 23 -136 1z"/>
<path d="M4169 2638 c-16 -6 -19 -17 -19 -67 0 -38 4 -60 13 -63 10 -4 429 -4
450 1 12 2 8 119 -5 127 -15 10 -413 11 -439 2z"/>
<path d="M2778 2632 c-12 -2 -17 -17 -20 -59 -1 -30 0 -60 4 -66 8 -14 423
-18 451 -5 13 7 17 21 17 63 0 32 -5 57 -12 62 -12 7 -405 12 -440 5z"/>
</g>
</svg>
